<!DOCTYPE svg PUBLIC "-//W3C//DTD SVG 1.1//EN" "http://www.w3.org/Graphics/SVG/1.1/DTD/svg11.dtd">
<!-- Uploaded to: SVG Repo, www.svgrepo.com, Transformed by: SVG Repo Mixer Tools -->
<svg fill="#5dade2" width="800px" height="800px" viewBox="0 0 24 24" xmlns="http://www.w3.org/2000/svg">
<g id="SVGRepo_bgCarrier" stroke-width="0"/>
<g id="SVGRepo_tracerCarrier" stroke-linecap="round" stroke-linejoin="round"/>
<g id="SVGRepo_iconCarrier">
<path d="M19.5,11a1,1,0,0,1-1,1h-3a1,1,0,0,1-.832-.445L13,9.053V22a1,1,0,0,1-2,0V16H10v6a1,1,0,0,1-2,0V9.662L6.448,14.316a1,1,0,1,1-1.9-.632l2-6A1,1,0,0,1,7.5,7h6a1,1,0,0,1,.832.445L16.035,10H18.5A1,1,0,0,1,19.5,11Zm-9-5A2.5,2.5,0,1,0,8,3.5,2.5,2.5,0,0,0,10.5,6Z"/>
</g>
</svg>